<?xml version="1.0" standalone="no"?>
<!DOCTYPE svg PUBLIC "-//W3C//DTD SVG 20010904//EN"
 "http://www.w3.org/TR/2001/REC-SVG-20010904/DTD/svg10.dtd">
<svg version="1.0" xmlns="http://www.w3.org/2000/svg"
 width="309.000000pt" height="309.000000pt" viewBox="0 0 309.000000 309.000000"
 preserveAspectRatio="xMidYMid meet">
<metadata>
Created by potrace 1.11, written by Peter Selinger 2001-2013
</metadata>
<g transform="translate(0.000000,309.000000) scale(0.100000,-0.100000)"
fill="#000000" stroke="none">
<path d="M240 1671 l0 -1268 -114 -119 c-63 -65 -110 -121 -106 -124 5 -3 22
-5 37 -4 15 1 166 3 336 3 l307 1 0 1271 0 1270 43 43 c23 24 76 78 117 120
l74 76 -347 0 -347 0 0 -1269z"/>
<path d="M1160 1673 l0 -1268 -115 -115 c-63 -63 -114 -118 -115 -122 0 -4
156 -6 346 -5 l346 2 129 285 c72 157 137 301 146 320 9 19 17 37 18 40 0 3
10 25 22 50 11 25 98 216 193 425 95 209 190 418 211 463 22 46 39 86 39 88 0
2 23 51 50 109 27 58 50 107 50 109 0 3 23 52 50 111 28 59 50 108 50 111 0 2
19 43 41 91 23 49 50 107 60 131 13 29 78 103 206 233 104 104 189 193 191
197 1 4 -157 7 -350 7 l-353 -1 -17 -34 c-9 -19 -148 -325 -308 -680 -161
-355 -304 -670 -318 -700 -14 -30 -45 -98 -69 -150 l-43 -95 0 717 c0 394 3
718 8 720 4 2 56 54 117 116 l110 112 -348 0 -347 0 0 -1267z"/>
</g>
</svg>
